# xmcd
#
# Track frame offsets: 
#        150
#        19463
#        42865
#        60870
#        89386
#        108262
#        126948
#        143844
#        170847
#        209000
#        221139
#        247995
#        264724
#
# Disc length: 3955 seconds
#
# Revision: 0
# Processed by: cddbd v1.5.2PL0 Copyright (c) Steve Scherf et al.
# Submitted via: ExactAudioCopy v0.95b4
#
DISCID=c40f710d
DTITLE=Diggadgy - Blow Shanti
DYEAR=2004
DGENRE=Electronic
TTITLE0=Raksha Storm
TTITLE1=Blow Shanti
TTITLE2=Jamy Jaly
TTITLE3=Sansara
TTITLE4=Blow Shanti Extra
TTITLE5=Kali Addiction
TTITLE6=Jaipuri
TTITLE7=Drum'n'Rama
TTITLE8=Shankar Trip
TTITLE9=Kaira'up
TTITLE10=Shiva In Tha House
TTITLE11=Santa Shiva
TTITLE12=Drum Durga
EXTD=
EXTT0=
EXTT1=
EXTT2=
EXTT3=
EXTT4=
EXTT5=
EXTT6=
EXTT7=
EXTT8=
EXTT9=
EXTT10=
EXTT11=
EXTT12=
PLAYORDER=
